<?xml version="1.0" encoding="UTF-8"?>
<svg id="Layer_1" xmlns="http://www.w3.org/2000/svg" version="1.1" viewBox="0 0 257.6 310.4">
  <!-- Generator: Adobe Illustrator 30.7.0, SVG Export Plug-In . SVG Version: 2.1.4 Build 114)  -->
  <defs>
    <style>
      .st0 {
        stroke-miterlimit: 4;
        stroke-width: 1px;
      }

      .st0, .st1, .st2 {
        stroke: #000;
      }

      .st0, .st2 {
        fill: none;
      }

      .st1 {
        fill: #fff;
      }

      .st1, .st2 {
        stroke-miterlimit: 10;
      }
    </style>
  </defs>
  <g>
    <path class="st1" d="M160.7,286s0,0-.1,0c0,0,0,0,0,0h.1Z"/>
    <path class="st1" d="M237.5,197.9q-.3-3-.5-6t-.5-6c-.3-3-1-3.1-1.3-6-.3-2.9-.5-3-.7-5.9-.3-2.9-.2-3-.4-5.9-.3-2.9,1-3.1.8-6-.3-2.9-1.3-2.9-1.6-5.8-.3-2.9.3-3.1,0-6-.3-2.9-1.3-2.8-1.6-5.8-.2-2.1.9-4.5.5-6.5-.4-2-1.4-4.1-2.1-6.1-.6-2-1-4.1-1.8-6.1-.8-2-1.3-4.1-2.3-6.1-.9-2-2.4-3.6-3.5-5.4-1.1-1.8-3-3.3-4.2-5,0-.5-.1-1-.1-1.5,1.1.9,3.7,2.7,6.7,2.7h.3c1.7,0,3-.8,4-1.6,1.1,0,2-.4,2.9-.9,1.9-1.1,4.2-3.6,4.9-6.4.7-3.3-1-5.8-1.9-7,0,0-.1-.2-.2-.3,0,0,0-.2-.1-.3-.6-1.2-1.9-4-5.2-4.8-.8-.2-1.6-.3-2.5-.3-3.4,0-7,1.6-9.3,4.3-1.2,1.3-1.6,2.7-1.8,3.9,0,0,0-.1,0-.2-.7-2-1-4.1-1.9-6-.9-1.9-2.1-3.7-3.1-5.5-1-1.8-3.2-3-4.3-4.6-1.1-1.6-1.7-3.7-3.1-5.4-.7-1.7-2.3-2.9-3.1-4.7-.4-.8-.7-1.7-1-2.6.8-1,1.1-2.3.9-3.7-.3-1.8-.7-3.6-1-5.4,1.9-1.4,3.1-3.8,2.9-6.2-.1-1.3-.5-2.3-1.6-3.1-.6-.5-1.4-.8-2.2-.9-.8-.3-1.6-.4-2.4,0-1.5.6-2.7,1.3-3.9,2.4-.9.9-1.6,2-2.1,3.1-1-.5-2-1-2.8-1.7-1.4-1.3-2.3-3.2-3.7-4.3-1.4-1.2-2.7-2.8-4.2-3.9-.9-.6-1.6-1.3-2.5-1.8-1.4-1.4-3.5-2.1-5.1-3.5s-3-2.8-4.6-4c-1.5-1.2-2.9-2.7-4.6-3.7-1.6-1.1-3.7-1.5-5.4-2.3-1.7-.8-3.5-1.5-5.4-2.2s-3.7-1.6-5.5-2.1-3.8-.4-5.7-.9-3.7-1.7-5.6-2-3.9.2-5.9,0c-2-.2-3.9.1-5.8.2-1.9,0-4-.5-5.9-.4-1.9.2-3.9.2-5.8.5-1.9.3-3.5,1.7-5.5,2.1-1.9.4-3.8.7-5.6,1.3-1.8.6-3.8.8-5.6,1.5-1.8.7-3.4,1.8-5.1,2.7s-3.3,1.9-5,2.9c-1.4.9-3.1,1.4-4.5,2.2-.8-.4-1.7-.5-2.6-.2-.4.1-.8.3-1.2.5,0,0,0,0-.1,0-2.7-.5-5.4.4-6.8,2.9-1.3,2.2-1.1,4.7-.6,7.1,0,0,0,.2,0,.3-1,.6-2,1.2-2.8,2.1-1.4,1.6-2.6,3.5-3.8,5.2-1.3,1.2-2.7,2.4-3.9,3.7-1.2,1.3-1.8,3.2-2.8,4.7-1.1,1.5-2.8,2.5-3.8,4s-.8,3.6-1.7,5.2c-.6.9-1.5,2.4-2.4,4.4-.6,1.4-2,2.7-2.8,4.5-.5,1-.3,3.2-1,5.5-.5,1.6-1.7,3.2-2.1,5.3-.7,1-1.8,2.1-3,4.5-.7,1.6-.8,1.6-1.6,3.2-.8,1.7-.8,3.7-1.4,5.5-.6,1.8-2,3.2-2.5,5.1-.5,1.9.6,4,.2,5.8-.1.6-.3,1.2-.4,1.7,0,0-.2,0-.2,0-.1,0-.3,0-.4,0,0,0-.1,0-.2,0-.3,0-.7,0-1,.1-1.6.4-2.9,1.8-3.2,3.4-.2,0-.3,0-.5,0-1.1.3-1.7,1-2.4,1.8-1.9,2.6-1.4,6.9,1.1,8.9.9.8,2,1.2,3.1,1.2-.4,1.3-.8,2.7-1.2,4.1-.5,1.8-2.3,3.2-2.7,5-.4,1.8-.2,3.7-.5,5.6s.6,3.9.4,5.6c-.2,1.7-.3,3.6-.4,5.4,0,1.8.1,3.7.3,5.5q.3,3.1.5,6.2c.3,3.1-.4,3.2-.1,6.3.3,3.1.8,3.1,1.1,6.2.3,3.1-.4,3.2-.1,6.3.3,3.1,1.1,3,1.4,6.2q.3,3.1.5,6.2c.3,3.1-.9,3.2-.6,6.3s.8,3.1,1.1,6.2c.3,3.1.2,3.1.4,6.2.3,3.1.9,3.1,1.2,6.2.2,1.9-.3,3.9,0,5.8.4,1.9.8,3.7,1.3,5.6.5,1.9,1.4,3.6,2,5.5.6,1.9.6,4,1.4,5.7.8,1.8,1.6,3.5,2.5,5.3.2.5.5.9.7,1.4-1.1,2.3-1.5,4.8-.7,7.3,0,.1,0,.2.1.3-.2.8,0,1.8.6,2.7,1.2,1.9,2.7,3.4,4.7,4.5,1.8,1,4.5.3,5.6-1.5,1.3,1,2.9,1.8,4.1,2.9,1.4,1.3,2.8,2.6,4.3,3.7,1.5,1.2,2.4,3.4,4,4.4,1.6,1,3.3,2.1,5,3,1.7.9,4,.6,5.8,1.4,1.7.8,2.8,2.8,4.6,3.5,0,0,.1,0,.2,0,.6,2.7,2,5.2,4,7.2.9.9,2.2,1.2,3.4,1.1,1.6,1,3.6,1.4,5.4.9,2-.6,3.5-2.8,2.8-4.9,0-.2-.2-.4-.2-.5.4,0,.8.2,1.2.3,1.9.4,3.8-.1,5.8,0,2,.2,3.9-.4,5.7-.5,1.8,0,3.8,1,5.7.8,2.2-.2,4.1-1.2,6.2-1.7,2.1-.5,4.3,0,6.5-.6,2.1-.5,3.7-2.3,5.8-2.9,2.1-.6,4.3-.5,6.3-1.3,2.1.5,4.1.9,6.2,1.3,2.1.4,4.3.3,6.3.4,2.1.1,4.2-.3,6.4-.3,2.1,0,4.2,0,6.3-.1,0,0-.1-.3,0-.3,1.9-.2,3.7.4,5.7.2,1.9-.3,3.6-1.3,5.5-1.7,1.9-.4,3.9,0,5.8-.5,1.9-.6,3.8-1,5.6-1.7,1.8-.7,3.4-1.6,5.2-2.5,1.8-.9,3-2.4,4.7-3.4,1.6-1,3.2-2,4.7-3.2,1.5-1.2,3.5-1.7,4.9-3,1.4-1.3,2.1-3.5,3.4-4.8,1.3-1.3,2.8-2.4,4.1-3.9,1-1.2,2.5-2,3.4-3.1.9-1.2,1.5-2.6,2.4-3.9.8-.8,1.9-1.7,3-3,.8-.8.2-1.4.9-2.2,1.4-1.5,2.8-3,3.9-4.7.4-.5.8-1,1.2-1.5,1.4,1.1,3.4,1.3,4.9-.5,0,0,.1-.2.2-.2,1-.2,1.9-.8,2.4-1.7,1.9-3.1,2.6-6.6,2.8-10.2.2-2.5.2-5-.9-7.1,0-.2.1-.4.2-.7.6-2,.5-4.1.9-6,.4-2,.6-4,.9-6,.3-2.1.4-4,.4-6.1,0-2.1.8-4.2.6-6.2Z"/>
  </g>
  <path class="st0" d="M157.3,246.9c-2.1.2-4.1-.3-6.2-.5-2.1-.3-4.2.4-6.2-.2-2-.6-3.6-1.9-5.6-2.7-1.6-.6-3-1.6-4.4-2.4-1.4-.9-3.1-1.3-4.3-2.3-.4.5-.4.4-.8.7-1,1.3-2.6,2.8-4.7,4.5-1.5,1.2-3.4,2.3-5.6,3.4-1.8.9-3.6,2.5-5.8,3-2,.5-4.2.8-6.6,1s-4.2.3-6.2,0c-2-.3-4.1-.8-6.1-1.4s-3.7-1.5-5.7-2.4c-1.7-.8-3.2-1.8-4.7-2.7-1.5-1-3.3-1.8-4.6-3.1-1.3-1.3-2.1-3.1-3.1-4.5-1-1.4-1.9-3.1-2.7-4.8-.8-1.7-1.9-3.2-2.4-5-.5-1.8-.3-3.7-.5-5.5-.3-3.1-.9-3.1-1.2-6.2l-.5-6.3c-.3-3.1.6-3.2.3-6.3s-1.1-3.1-1.4-6.1,0-3.1-.3-6.3-.5-3.1-.8-6.2l-.5-6.3c-.3-3.1,0-3.2-.2-6.3l-.5-6.3-.5-6.3c-.2-2.2-.2-4.3,0-6.4.3-2.1.4-4.4,1.1-6.4s2-3.9,3.1-5.7c1.1-1.8,2.7-3.5,4.2-5,.3-3.6-.4-3.7-.8-7.3s0-5.2.3-7.3c.6-3.4,1.3-6,1.8-7.1.4-1.1.7-1.1,1.1-2.3,0-.3.5,0,.7-.4,1.2-2.3,2.6-4.5,4.1-6.3,0-2.1-.4-4.2,0-5.9.6-2.3,1.1-4.3,1.6-5.4.8-2,2-3.5,2.4-4.6,1.2-2.1,2.5-4,4-5.7,1.6-1.8,3.5-3,5.3-4.4.7-1.5,1.4-3.1,2.3-4.3,1-1.3,1.9-2.7,3-3.9,1.4-1.4,2.9-2.6,4.5-3.8,1.5-1.1,3.6-1.4,5.5-2.2s3.3-2.4,5.2-2.8c1.9-.5,3.9-.7,5.8-.8s4,0,5.9.2,4,.2,5.8.7c1.8.5,3.6,1.6,5.3,2.5,1.7.8,3.9,1.1,5.5,2.2,1.3,1,2.4,2.4,3.6,3.6,1.2,1.2,2.3,2.4,3.2,3.7,1.8.9,3.4,2,5.2,3,1.6,1.2,3.5,2.1,4.8,3.5,1.3,1.4,1.9,3.5,3,5.2,1,1.7,1.7,3.4,2.4,5.2.7,1.8,1.8,3.4,2.2,5.4,1.7,1.3,2.9,3,4.3,4.6,1.4,1.6,2.5,3.4,3.5,5.2,1,1.9,2.4,3.6,3,5.6.6,2,1.1,4.1,1.3,6.3.3,3.8-1.1,4.1,0,7.8,1.7,1.3,3.8,2.5,5.2,4.1s2,3.7,3,5.6c1,1.9,2.6,3.5,3.2,5.5.6,2,1.2,4.1,1.4,6.2.3,3,0,3,.3,6s.5,3,.7,5.9-.7,3-.5,6l.5,5.9c.3,2.9,1.1,2.9,1.4,5.9.3,2.9-.5,3.1-.2,6s.4,3,.6,5.9.9,3,1.2,6-.6,3.1-.3,6.1.9,3.9.5,5.9c-.4,2-.9,3.9-1.5,5.8s-2.1,3.3-3,5c-.9,1.7-1.7,3.5-3,5-.7.8-.6.9-1.3,1.7-1.4,1.4-2.7,2.7-4,3.8-1.2,2.4-2.3,4.9-4.1,7-1.4,1.6-3,3.1-4.7,4.4-1.7,1.3-3.5,2.5-5.5,3.4-2,.9-4,1.7-6,2.2-2,.5-4.2.8-6.3,1h.1Z"/>
  <path class="st2" d="M181.7,197.2c-.3-3-.7-3-1-6-.3-3,0-3-.2-6-.3-3-.8-3.1-1.1-6-.3-2.9.3-2.9,0-6-.3-3-.7-3.1-1-6-.3-2.9,0-2.9-.3-5.9-.3-3-.8-3.1-1.1-6-.3-2.9,0-2.9-.2-5.9-.2-1.9-.2-3.8-.9-5.5-.7-1.8-1.9-3.4-3.1-4.8-1.2-1.4-2.7-2.7-4.4-3.6-.7-.4-1.6-.4-2.3-.8-.4-3-.5-3.5-.7-5.7,1.2-.4,2.3-1.4,2.6-2.7.4-1.7.4-3.6-.1-5.3-.5-1.5-1.9-2.8-3.5-2.9-.1-1.2-.4-2.4-.8-3.5-.7-1.8-2.1-3.2-3.4-4.5-1.3-1.3-2.7-2.4-4.4-3.3-.8-.5-1.8-1-2.6-1.4-.5-2.2,0-2.4-.2-4.6-.2-2.5-.6-4.7-1.8-6.9-1.2-2.2-2.8-4-4.8-5.4-1.9-1.5-3.9-2.5-6.2-3.1-.7-1.5-1.8-2.5-2.8-3.7-1-1.1-1.8-2.3-3.1-3.3-1.9-1.4-3.9-2.2-6.2-2.7-2.1-.5-4.3-.4-6.7-.2-2.5.2-4.5.7-6.5,1.5-2.1.8-4,1.9-5.5,3.5-1.1,1.2-2.4,2.1-3.2,3.4-.7,1.4-.8,3.1-1.2,4.5-.2.1-.6-.3-.8-.3-1.6.8-3,1.9-4.3,3.2-1.2,1.2-1.8,2.9-2.8,4.5-.4.6-.6,1.8-1.1,3.1-.6,1.5-2.2,3.9-1.9,7.2.2,2,1.7,2.3.9,4.3-3,2-5,4.3-6,6.2q-.2.3-.4.7c-.3,1,0,1.1-.5,2.1-.9,1.8-2,4.3-1.7,7.6.3,3.5-.1,3.6.2,7.1.3,3.5.5,3.5.4,7.1-.8.5-1.1,1.3-1.9,1.9-1.4,1.2-2.6,2.7-3.4,4.3-.8,1.6-1.6,3.3-1.9,5.1-.4,1.9-.9,3.6-.7,5.6.2,2.8.7,2.9.9,5.7s.3,2.9.5,5.7c.2,2.8-.3,2.9,0,5.7.2,2.8.7,2.8.9,5.7.3,2.9.6,2.8.8,5.7.3,2.9.1,2.8.4,5.7.3,2.9-.3,2.9,0,5.7s1,2.6,1.2,5.5c.3,2.9-.2,2.8,0,5.7.3,2.9,0,2.8.2,5.7.3,2.9,0,2.9.3,5.7.2,2.1,1,4.1,1.8,6.1.8,2,2.5,3.6,3.9,5,1.4,1.4,3.2,2.4,5.2,3.3,1.8.8,3.5,1.4,5.4,1.8,1.9.4,3.8,1.2,5.6,1,1.8-.2,3.4-.9,4.9-1.4,1.8-.6,3.1-1.5,4.3-2.3,1.6-1.1,2.8-2.2,3.6-3.2,1.6-2.1,2.7-4.2,3.4-6.7.6-.4,1.4-.7,2.1-1.2,1.8-1.2,3.6-3.1,5.2-5.5.7-.9.9-2.1,1.3-3.3.9-2,.7-5.5,2.4-4.1,2.2,1.9-.3,3.2,0,6.1.2,2.3,1.4,4.1,2.3,6,.8,1.9,1.5,4,3.1,5.5,1.5,1.5,3.3,2.7,5.3,3.6,1.8.8,3.7,1.4,5.5,1.8,1.9.4,3.9,0,5.7,0v.4c0,0,0,.5,0,.5,2.7-.2,5-1.3,7.1-2.2,2.3-1.1,4.5-2.3,6-4.2,1.8-2.1,2.4-4.8,3.2-7.2,1.5-1,3.2-2.1,4.7-3.8.7-.8.8-.7,1.5-1.5,1.5-1.9,2.5-3.7,3.2-5.6.8-2.1.7-4.2.5-6.3-.3-3,.6-3.1.3-6.1Z"/>
  <path class="st2" d="M230,97.3c-.6-.9-.9-2.4-2-2.6-2.1-.5-4.7.6-6.1,2.2-.7.8-.6,1.8-.6,2.9s-.6,2.7.1,3.4c.8.7,2.3,1.6,3.4,1.6.8,0,1.5-1.4,2.1-1.8.6,0,1.6.4,2.1.1.8-.5,2-1.8,2.2-2.7.2-1-.7-2.1-1.3-3Z"/>
  <path class="st1" d="M46.8,39.4c-4.4,0-8.4-1.6-10.8-4.3s-1.1-.6-1.6-.3h0c-1.1.6-2.3-.4-1.9-1.6l1.3-3.8c0-.1,0-.3,0-.4,0-2,.5-3.7,1.4-5.7s.2-.6,0-.9v-.2c-.2-.6,0-1.2.6-1.5,1.3-.7,3.2-1.8,4-2.4h.2s8.9-5.1,8.9-5.1c1.1-.6,2.3.4,1.9,1.6l-.3.9c-.2.7.1,1.4.8,1.7,6.6,2.3,8.9,10.4,3.6,15.3s-.3.4-.4.6c-.9,2.9-3.1,6.1-7.9,6.1Z"/>
  <path class="st2" d="M52.4,26.1c0-2.4-3.2-3.8-5.6-3.8s-1.9.7-2.6,1.9c-.2.3-2.4-.5-2.5-.2-.1,0,.3-.2.2-.1-1.7,1.1-3.3,5.3-1.9,7.1,1.4,1.9,2.7.7,5.2.7,2.3,0,4.4-.2,4.5-2.4,0-.4,1.9-.7,1.8-1.1.3-.7.9-1.5.9-2.2Z"/>
  <path class="st2" d="M141.2,159q-.3-3-.5-6.1c0-1-.6-1.5-1.5-1.7-1-.2-2.2-.6-3.4-.9-1.2-.2-2.3-.9-3.4-1.5-1-.6-1.8-1.6-1.9-3.1-.2-2.7,0-2.7-.3-5.5-.2-2.8-.4-2.7-.7-5.5-.2-2.8,0-2.8-.3-5.5-.2-2.7-.2-2.8-.5-5.5,0-.4-.6-.9-1.4-1.4-.9-.5-1.5-1-1.9-.9-.7,0-1.3.6-2.2,1.2h-.3c-.8.6-1.3,1.3-1.2,2.2q.2,2.8.5,5.5c.2,2.7.2,2.8.5,5.6s.5,2.8.7,5.6c.2,2.8,0,2.8.3,5.6,0,.9-.3,1.8-1.3,2.8-1,1.1-1.9,1.8-2.7,2.1-.3,0-1,.2-1.5.3-.6,0-1.1.2-1.7.5-.4.3-.8.6-1.2,1.1-.4.4-.5.9-.4,1.7q.2,2.8.5,5.6c.2,2.8,0,2.8.4,5.6,0,.9.5.8,1.2,1.3.6.5,1.2,1,1.5,1,1.4-.1,2.1-.2,2.8-.2.9,1.1,2.4,1.6,4,1.4.7,0,1.4-.2,2.1-.5,1.7,1.3,4.6.7,5.8-1.1.2-.3.4-.7.6-1,.2,0,.4,0,.7,0q2.7-.2,5.3-.5c.7,0,.4-.4,1-1,.5-.6.9-.9.9-1.2-.2-2-.4-4-.5-6.1Z"/>
  <g>
    <path class="st2" d="M157.6,260.1h0c0,0-.1,0-.2,0-.3,0,.1,0,.2,0Z"/>
    <path class="st2" d="M157.6,260.1h0s0,0,0,0Z"/>
    <path class="st2" d="M209.1,200.3c-.3-2.9-1.2-2.9-1.5-5.8-.3-2.9-.3-3-.5-5.9-.3-2.9,0-3-.3-5.9-.3-2.9,0-2.9-.2-5.9-.3-3-.9-2.8-1.2-5.9-.3-3,.6-3,.3-6-.3-3-.9-3-1.2-5.9s-.3-2.9-.5-5.9q-.3-3-.5-5.9c-.2-2-.6-4-.9-5.9-.4-1.9-.5-4-1.2-5.9-.7-1.9-1.3-3.8-2.2-5.5-.9-1.8-2.1-3.5-3.4-5-1.2-1.5-2.1-3.2-3.5-4.6-.5-1-1.1-.9-1.2-2.1-.2-2.1-.5-4.2-1-6.2-.5-2-1.2-3.9-2-5.9-.8-2-1.6-3.9-2.7-5.6-1-1.8-2-3.7-3.2-5.4-1.2-1.6-3.1-2.9-4.6-4.4-.6-1.8-.6-4-1.4-5.7s-1.9-3.3-2.9-4.9c-1-1.6-2-3.2-3.2-4.7-1.2-1.5-2.6-2.8-4-4.1s-3.1-2.2-4.7-3.3c-1.3-.9-2.2-2.5-3.7-3.4-1.1-1.4-2.4-2.8-3.6-3.9-1.2-1.1-2.8-2-4.3-3.1-1.5-1.1-3.1-2.1-4.7-2.9-1.6-.8-3.3-1.9-5-2.5-1.7-.6-3.6-.7-5.4-1.2-1.8-.5-3.6-1.2-5.3-1.4-1.7-.2-3.6-.5-5.5-.6-1.8,0-3.6.6-5.6.8-1.9.2-3.6.4-5.5.7-1.8.3-3.5.6-5.3,1.1-1.8.5-3.5,1.3-5.1,2-1.7.7-3.5,1.3-5,2.2s-2.7,2.4-4.1,3.6c-1.4,1.2-2.5,2.6-3.8,3.9-1.3,1.3-3,2.1-4.1,3.5-1.2,1.4-1.8,3.2-2.7,4.7-1.4,1.1-2.8,2.3-4,3.6-1.2,1.3-2.6,2.6-3.7,4-1.1,1.4-1.3,3.4-2.3,5-.7,1.4-2,3.3-2.9,6-.3,1-1.2,2.7-1.8,5.1-.4,1.6-1,3.3-1.3,5.4-1.3,1.6-1.8,3.7-2.9,5.7-.2.3-.2.2-.4.6-.5,1.3-1.2,1.1-1.7,2.4-.8,1.7-1.4,3.4-1.9,5-.5,1.7-.8,3.4-1.2,5.2-.4,1.8-.1,3.6-.2,5.3,0,1.7-.7,3.5-.5,5.4,0,1,1.1,1,.8,2-1.2,1.6-2,3.5-2.9,5.3-.9,1.8-1.6,3.7-2.2,5.6-.6,1.9-1.6,3.8-2,5.7-.4,1.9,0,4-.2,6s-.5,3.9-.3,6c.3,3.1.7,3.1,1,6.2.3,3.1,0,3.1.2,6.3q.3,3.1.5,6.2c.3,3.1.6,3.2.9,6.2.3,3,0,3,.2,6.2.3,3.1.7,3.2,1,6.2.3,3-.4,3.1-.1,6.2.3,3.1.7,3.2,1,6.2.3,3,.3,3.1.5,6.1.3,3,.7,3,1,6.1,0,.2,0,.4,0,.6-1.2.4-2.3.9-3.4,1.4-1.8.9-2.4,3.3-1.6,5,.8,2,2.7,2.6,4.7,2.3.5,0,1.1-.2,1.6-.3.4.8.9,1.5,1.2,2.3.7,1.9,1.3,3.7,2.2,5.4.9,1.8,1.4,3.7,2.6,5.3s2.9,2.6,4.4,4.1c1.4,1.5,2.6,2.9,4.2,4.2,1.5,1.3,2.9,2.9,4.5,3.9,1.6,1.1,3.7,1.3,5.5,2.1,1.9.9,3.8,1.8,5.9,2.5,2,.7,3.9,1.7,6,2.2,2.1.5,4.3.6,6.4.6,2.2,0,4.3-.2,6.5-.3,2.4-.2,4.4-1.3,6.5-1.6,2.3-.5,4.5-.5,6.5-1.2,2.2-.8,4-2.1,5.8-3.1,2.1-1.2,4.3-1.7,5.9-2.9.2,0,.1.4.5.6,1.9.8,4,1,6.1,1.6,2.1.7,4,1.4,6.1,1.7,2.1.4,4.2.2,6.3.3s4.3.5,6.3.3h-.3c2,0,3.7-.2,5.7-.6,2-.4,3.9-1,5.8-1.7,1.9-.7,3.3-2.3,5.1-3.2,1.1-.5,2.3-.8,3.4-1.2.4.5,1,.9,1.5,1.1,1.6.7,3,.2,4.3-.8,0,0,.1,0,.2-.2.2-.2.4-.3.7-.5.3-.2.7-.5,1-.7.8-.5,1.6-1.1,2.4-1.5,1.8-1.1,2.6-3.6,1.4-5.5-.2-.4-.6-.7-.9-1,.1-.1.2-.2.3-.4,1.9-2.1,2.9-4.8,4.4-7.2,1.1-1.1,2.6-2,3.9-3.4.7-.8.9-.6,1.6-1.4,1.3-1.4,1.8-3.3,2.8-4.9,1.1-1.6,2-3.1,2.8-4.8s2.1-3.2,2.7-5c.6-1.8,1.3-3.6,1.6-5.4.3-1.9.5-3.8.6-5.7,0-1.8.2-3.8,0-5.7Z"/>
    <path class="st2" d="M183.5,253.6s0,0,0,0c-.1.1-.1,0,0,0Z"/>
  </g>
  <path class="st1" d="M228,275.1c-3.3,0-6.6-1.7-8.9-4.5-3.6-1.7-4.5-4.1-4.6-6.1-.3-4,2.9-7.3,5.9-9.5,1.9-2.8,4.8-3.1,6.4-3.2,0,0,.2,0,.2,0,.8-.3,2.1-.8,3.6-.8s3.3.6,4.5,1.7c.8.6,1.6,1.6,2,3,1,.3,1.7.8,2.2,1.3l.2.2.2.2c.2.2.4.4.5.6,1.3,1.4,3.4,3.7,2.9,7.1-.4,2.8-2.4,4.4-3.7,5.3-.6.6-1.5,1.1-2.7,1.3-1.1,1.2-2.5,2.1-4.1,2.4-1.4.8-3,1.2-4.6,1.2Z"/>
  <path class="st2" d="M235.4,261c-.2-.2-.7-.2-1.3,0-1.3.3-2.5-.8-2.4-2.2s0-1.6-.4-1.9c-.7-1.1-2.5.4-3.9.5-1.3,0-2.1,0-2.6,1.2s-.3.5-.6.6c-1.7,1.2-4.4,3.5-4.1,5.1,0,1,2.4,1.4,2.9,2.2,1.7,2.6,4.9,3.9,7.2,2.2.3-.2.6-.3.8-.3.9,0,1.6-.7,1.9-1.5s.1-.4.2-.4c.5-.2.8.2,1.1-.1.4-.4,1.3,0,1.5-.6,3.1-1.7,1.6-2.7-.3-4.7Z"/>
  <path class="st2" d="M226.6,222.3c-.5-2.8-2.3-5.2-4.7-6.5,0,0-.1,0-.2,0,0-1.1,0-2.3.1-3.4.2-2.2.6-4.2.6-6.3,0-2.2,0-4.2-.1-6.4q-.3-3-.5-6c-.3-3,.4-3.1.1-6.1-.3-3-.9-2.9-1.2-6-.3-3-.5-3.1-.7-6-.3-2.9-.4-2.9-.6-5.9-.3-3-.3-3.1-.5-6-.3-2.9.5-3,.2-6-.3-3-1-3-1.3-5.9-.3-2.9.8-3,.6-6-.2-1.8-1.4-3.7-1.8-5.5-.4-1.8.5-3.9,0-5.8-.5-1.9-1.7-3.5-2.4-5.3-.7-1.8-1.7-3.5-2.5-5.2-.8-1.7-1.4-3.6-2.4-5.2-1-1.6-2.4-2.9-3.6-4.4-.3-1.9-.8-3.7-1.3-5.7-.5-2-1.2-3.8-1.8-5.7-.6-1.9-1.1-3.8-2-5.6-.9-1.8-1.3-3.9-2.3-5.5-1-1.6-2.7-2.9-4-4.5-1.2-1.6-2.8-3-4.1-4.5-.6-1.8-1.5-3.5-2.3-5.3-.8-1.8-.9-3.8-1.9-5.5-1-1.6-2.8-2.7-3.9-4.2-1.1-1.5-2.1-3.2-3.4-4.6-1.3-1.4-1.9-3.4-3.4-4.7-1.5-1.3-3.1-2.2-4.7-3.4-1.1-.9-2.6-1.1-3.8-1.7-1.3-1.4-2.8-2.6-4.2-3.8-1.4-1.3-2.8-2.5-4.3-3.6-1.6-1.2-3.4-2.1-5.1-3.1-1.7-1-3.2-2.6-5.1-3.4-1.9-.8-4-1.2-5.9-1.8-1.9-.6-3.9-1.1-5.9-1.4-2-.4-4.1-.8-6-1-2-.2-4-.9-6-.9-2.1,0-4,.8-6.1,1-2,.2-4.3-.6-6.2-.2-1.9.4-3.9.9-5.9,1.4-2,.5-3.5,2.5-5.4,3.2-1.9.7-3.9,1-5.8,1.9-1.9.9-3.5,2.1-5.1,3.3-1.6,1.1-3.4,2.2-4.9,3.6-1.5,1.3-3,2.7-4.4,4.2s-2.4,3-3.6,4.6-2.8,2.7-3.8,4.4c-1.5,1.4-3.3,2.7-4.6,4.3-1.3,1.6-2.6,3.3-3.9,5-1.1,1.7-1.9,3.7-3.1,5.6-.9,1.7-2,4.7-3.2,8-.5,1-.7,3-1.4,5.3-.5,1.6-1.6,3.3-1.9,5.4-.7,1.5-1.9,2.8-2.9,4.7-.2.3-.4.3-.5.6-.6,1.5-.7,1.5-1.4,2.9-.9,2-1.1,4.2-1.8,6.2-.7,2-.9,4.2-1.4,6.3-.5,2.1-.9,4.2-1.2,6.4-.2,2.2-.4,4.2-.2,6.4-.9,1.6-1,3.7-1.7,5.4-.7,1.8-1.6,3.5-2.2,5.3-.6,1.8-1,3.7-1.4,5.5-.2,1-.5,2-.7,2.9-1.1.2-2.1.7-3,1.4-2,1.8-1.2,5.8,1.3,6.6,0,0,0,0,0,0,0,.1,0,.2,0,.3,0,1.8,1.5,3.8,1.7,5.7.2,2.8-.5,3-.3,5.8.2,2.8.1,2.9.4,5.7.2,2.8-.2,2.9,0,5.7.2,2.8,1.4,2.7,1.7,5.6.3,2.9,0,2.8.3,5.7.3,2.9-.4,2.8-.1,5.7.3,2.9,0,2.9.3,5.7.2,2.8,1.2,2.6,1.5,5.5s-.3,2.8,0,5.7c.3,2.9-.3,2.8,0,5.7.3,2.9.6,2.9.8,5.7.2,2,1.1,3.9,1.5,5.9.4,2,.8,3.9,1.4,5.9.6,2,1.3,3.9,2.1,5.8.8,1.9.9,4.1,1.9,5.9,1,1.7,2.3,3.3,3.6,5,1.2,1.7,3.2,2.7,4.5,4.3,1.3,1.5,2.4,3.2,4,4.6,1.5,1.4,2.7,3.3,4.3,4.5,1.6,1.2,3.3,2.6,5,3.7,1.7,1,3.8,1.5,5.7,2.4,1.9.9,4,1.5,6,2.3,2,.8,4.1,1.4,6.2,1.8,2.1.5,4.3.5,6.5.8,2.2.3,4.3,0,6.5,0,2.2,0,4.4,1,6.6.8,2.1-.2,4.3-.8,6.4-1.2,2.1-.4,4.1-1.5,6.1-2.2s4.4-.4,6.4-1.2c2-.8,3.8-2.3,5.7-3.3,2,.7,3.9,1.9,5.9,2.4,2.1.5,4.3.5,6.4.8,2.1.4,4.3,0,6.4,0,2.1,0,4.2-.4,6.3-.6l-.3.2c2-.2,3.9.4,5.9.1,1.9-.3,3.8-.9,5.7-1.4,1.9-.5,3.7-.9,5.6-1.6,1.9-.7,3.7-1.4,5.4-2.3,1.8-.9,3.1-2.5,4.8-3.6,1.6-1,3.5-1.7,5-2.9,1.5-1.2,2.2-3.3,3.6-4.7s3.7-1.8,5-3.4c1.9-2.2,3.5-4.8,5-7.2.2-.2.5-.5.7-.7.9.3,2,.2,2.6-.6,1.5-1.8,3.2-3.5,4.9-5.1.7-.6,1.3-1.3,2.2-1.6,1-.3,2.1-.3,3.1-.3,1.5,0,2.9-1.5,2.4-3,0,0,.2-.2.2-.2.4-.3.8-.5,1.2-.7,1-.6,1.9-1.4,2.5-2.5.4-.8.4-1.7,0-2.3.1-.1.2-.3.3-.4.4-.7.7-1.4,1-2.1.5-1.4.6-3,.3-4.5Z"/>
</svg>